<svg width="67" height="128" viewBox="0 0 67 128" fill="none" xmlns="http://www.w3.org/2000/svg">
<path d="M2.23223 122.232L0.464466 124L4 127.536L5.76777 125.768L2.23223 122.232ZM65.7678 65.7678C66.7441 64.7915 66.7441 63.2085 65.7678 62.2322C64.7915 61.2559 63.2085 61.2559 62.2322 62.2322L65.7678 65.7678ZM5.76777 125.768L65.7678 65.7678L62.2322 62.2322L2.23223 122.232L5.76777 125.768Z" fill="#B1B1B1"/>
<path d="M5.76777 2.23223L4 0.464466L0.464466 4L2.23223 5.76777L5.76777 2.23223ZM62.2322 65.7678C63.2085 66.7441 64.7915 66.7441 65.7678 65.7678C66.7441 64.7915 66.7441 63.2085 65.7678 62.2322L62.2322 65.7678ZM2.23223 5.76777L62.2322 65.7678L65.7678 62.2322L5.76777 2.23223L2.23223 5.76777Z" fill="#B1B1B1"/>
</svg>
